<svg width="20" height="18" viewBox="0 0 20 18" fill="none" xmlns="http://www.w3.org/2000/svg">
<path d="M1.25 7.74986H16.075L11.5375 2.29986C11.3253 2.04459 11.2232 1.71548 11.2537 1.38495C11.2842 1.05442 11.4447 0.74953 11.7 0.537356C11.9553 0.325183 12.2844 0.223106 12.6149 0.25358C12.9454 0.284055 13.2503 0.444586 13.4625 0.699856L19.7125 8.19986C19.7545 8.25951 19.7922 8.32218 19.825 8.38736C19.825 8.44986 19.825 8.48736 19.9125 8.54986C19.9692 8.69318 19.9988 8.84574 20 8.99986C19.9988 9.15397 19.9692 9.30653 19.9125 9.44986C19.9125 9.51236 19.9125 9.54986 19.825 9.61236C19.7922 9.67753 19.7545 9.7402 19.7125 9.79986L13.4625 17.2999C13.345 17.441 13.1978 17.5544 13.0314 17.6322C12.8651 17.71 12.6836 17.7502 12.5 17.7499C12.2079 17.7504 11.9249 17.6487 11.7 17.4624C11.5734 17.3574 11.4688 17.2285 11.3921 17.0831C11.3154 16.9377 11.2682 16.7785 11.2531 16.6148C11.238 16.4511 11.2553 16.286 11.3041 16.129C11.3529 15.972 11.4322 15.8262 11.5375 15.6999L16.075 10.2499H1.25C0.918479 10.2499 0.600536 10.1182 0.366116 9.88374C0.131695 9.64932 0 9.33138 0 8.99986C0 8.66834 0.131695 8.35039 0.366116 8.11597C0.600536 7.88155 0.918479 7.74986 1.25 7.74986Z" fill="white"/>
</svg>
